<?xml version="1.0" encoding="utf-8"?>
<!-- Generator: Adobe Illustrator 16.0.0, SVG Export Plug-In . SVG Version: 6.00 Build 0)  -->
<!DOCTYPE svg PUBLIC "-//W3C//DTD SVG 1.1//EN" "http://www.w3.org/Graphics/SVG/1.1/DTD/svg11.dtd">
<svg version="1.1" id="Layer_1" xmlns="http://www.w3.org/2000/svg" xmlns:xlink="http://www.w3.org/1999/xlink" x="0px" y="0px"
	 width="48px" height="48px" viewBox="0 0 48 48" enable-background="new 0 0 48 48" xml:space="preserve">
<g>
	<path fill="#E9E9E9" d="M24,48C10.767,48,0,37.233,0,24S10.767,0,24,0s24,10.767,24,24S37.233,48,24,48z M24,2
		C11.869,2,2,11.869,2,24s9.869,22,22,22s22-9.869,22-22S36.131,2,24,2z"/>
</g>
<g>
	<path fill="#311205" d="M26.412,31.146c-0.271,0-0.54-0.109-0.737-0.323L20.23,24.9l5.444-5.924
		c0.374-0.405,1.006-0.433,1.413-0.06c0.407,0.374,0.433,1.006,0.06,1.413l-4.2,4.57l4.2,4.569c0.374,0.407,0.347,1.039-0.06,1.413
		C26.896,31.059,26.653,31.146,26.412,31.146z"/>
</g>
<g>
	<circle fill="none" stroke="#E9E9E9" stroke-width="2" stroke-miterlimit="10" cx="23" cy="-51.417" r="23"/>
	<polyline fill="none" stroke="#311205" stroke-width="2" stroke-linecap="round" stroke-miterlimit="10" points="25.411,-45.271 
		20.589,-50.517 25.411,-55.764 	"/>
</g>
</svg>
