<?xml version="1.0" encoding="utf-8"?>
<!-- Generator: Adobe Illustrator 16.0.0, SVG Export Plug-In . SVG Version: 6.00 Build 0)  -->
<!DOCTYPE svg PUBLIC "-//W3C//DTD SVG 1.1//EN" "http://www.w3.org/Graphics/SVG/1.1/DTD/svg11.dtd">
<svg version="1.1" id="Capa_1" xmlns="http://www.w3.org/2000/svg" xmlns:xlink="http://www.w3.org/1999/xlink" x="0px" y="0px"
	 width="50px" height="50px" viewBox="0.5 792.5 50 50" enable-background="new 0.5 792.5 50 50" xml:space="preserve">
<path fill="#3F729B" d="M25.5,792.5c-13.808,0-25,11.193-25,25s11.194,25,25,25s25-11.193,25-25S39.306,792.5,25.5,792.5z"/>
<path fill="#FFFFFF" d="M25.5,810.467c-3.884,0-7.033,3.149-7.033,7.033s3.149,7.033,7.033,7.033s7.033-3.149,7.033-7.033
	S29.384,810.467,25.5,810.467z M25.5,821.896c-2.423,0-4.396-1.973-4.396-4.396c0-2.425,1.973-4.396,4.396-4.396
	s4.396,1.971,4.396,4.396C29.896,819.923,27.923,821.896,25.5,821.896z"/>
<circle fill="#FFFFFF" cx="33.061" cy="809.939" r="0.938"/>
<path fill="#FFFFFF" d="M30.775,803.434h-10.55c-4.854,0-8.791,3.938-8.791,8.791v10.55c0,4.854,3.937,8.792,8.791,8.792h10.55
	c4.854,0,8.791-3.938,8.791-8.792v-10.55C39.566,807.371,35.629,803.434,30.775,803.434z M36.928,822.774
	c0,3.394-2.76,6.153-6.153,6.153h-10.55c-3.393,0-6.153-2.76-6.153-6.152v-10.551c0-3.393,2.76-6.152,6.153-6.152h10.549
	c3.394,0,6.154,2.76,6.154,6.152V822.774L36.928,822.774z"/>
</svg>
