<?xml version="1.0" encoding="utf-8"?>
<!-- Generator: Adobe Illustrator 16.0.0, SVG Export Plug-In . SVG Version: 6.00 Build 0)  -->
<!DOCTYPE svg PUBLIC "-//W3C//DTD SVG 1.1//EN" "http://www.w3.org/Graphics/SVG/1.1/DTD/svg11.dtd">
<svg version="1.1" id="Layer_1" xmlns="http://www.w3.org/2000/svg" xmlns:xlink="http://www.w3.org/1999/xlink" x="0px" y="0px"
	 width="21px" height="21px" viewBox="0 0 21 21" enable-background="new 0 0 21 21" xml:space="preserve">
<g>
	<path d="M15.228,15.228c-0.709,0.709-1.928,0.689-2.866,0.22c2.077,1.843,5.103,4.529,5.213,4.64
		c0.913,0.912,1.996,1.308,2.908,0.396c0.913-0.912,0.517-1.995-0.396-2.908c-0.145-0.145-2.595-2.872-4.57-5.073
		C15.919,13.418,15.901,14.555,15.228,15.228z"/>
	<path d="M2.371,2.371c-3.161,3.161-3.161,8.286,0,11.447c2.596,2.597,6.518,3.057,9.587,1.387c0.027-0.014,0.052-0.032,0.079-0.046
		c0.047-0.026,0.092-0.056,0.14-0.082c0.797,0.24,1.696,0.057,2.326-0.574s0.814-1.529,0.574-2.326
		c0.019-0.033,0.041-0.066,0.059-0.101c0.022-0.04,0.048-0.078,0.07-0.117c1.67-3.07,1.21-6.991-1.386-9.588
		C10.658-0.79,5.532-0.79,2.371,2.371z M14.247,10.991c-0.01,0.021-0.019,0.041-0.029,0.062c-0.013,0.026-0.024,0.054-0.036,0.08
		c-0.319,0.64-0.741,1.241-1.274,1.774c-0.533,0.533-1.135,0.955-1.775,1.273c-0.042,0.022-0.086,0.04-0.13,0.061
		c-0.004,0.002-0.008,0.003-0.012,0.006c-2.523,1.187-5.623,0.745-7.708-1.34c-2.658-2.657-2.658-6.967,0-9.624
		c2.658-2.658,6.967-2.658,9.625,0C14.993,5.368,15.434,8.468,14.247,10.991z"/>
</g>
</svg>
