<?xml version="1.0" encoding="utf-8"?>
<!-- Generator: Adobe Illustrator 16.0.0, SVG Export Plug-In . SVG Version: 6.00 Build 0)  -->
<!DOCTYPE svg PUBLIC "-//W3C//DTD SVG 1.1//EN" "http://www.w3.org/Graphics/SVG/1.1/DTD/svg11.dtd">
<svg version="1.1" id="Capa_1" xmlns="http://www.w3.org/2000/svg" xmlns:xlink="http://www.w3.org/1999/xlink" x="0px" y="0px"
	 width="50px" height="50px" viewBox="0 0 50 50" enable-background="new 0 0 50 50" xml:space="preserve">
<path fill="#FFFFFF" d="M15.507,21.957c-2.474-0.045-4.662,1.987-4.667,4.642c-0.004,2.62,2.18,4.778,4.888,4.655
	c2.372-0.108,4.421-2.059,4.426-4.657C20.162,24.028,18.076,21.954,15.507,21.957z M15.503,29.644
	c-1.672-0.004-3.046-1.375-3.05-3.043c-0.004-1.646,1.372-3.032,3.013-3.035c1.702-0.002,3.066,1.341,3.071,3.027
	C18.541,28.265,17.164,29.648,15.503,29.644z"/>
<path fill="#FFFFFF" d="M15.5,25.047c-0.879,0.002-1.557,0.676-1.557,1.547c0,0.886,0.68,1.566,1.561,1.565
	c0.861-0.003,1.562-0.704,1.559-1.56C17.06,25.736,16.364,25.047,15.5,25.047z"/>
<path fill="#FFFFFF" d="M34.379,28.144c0.837,0,1.523-0.69,1.533-1.535c0.007-0.85-0.689-1.548-1.543-1.545
	c-0.87,0-1.543,0.678-1.544,1.555C32.823,27.462,33.518,28.144,34.379,28.144z"/>
<path fill="#FFFFFF" d="M29.706,26.603c-0.001,2.605,2.157,4.756,4.853,4.651c2.414-0.092,4.463-2.084,4.463-4.662
	c0-2.568-2.084-4.64-4.654-4.635C31.881,21.913,29.707,23.967,29.706,26.603z M34.379,23.565c1.664,0,3.02,1.361,3.02,3.037
	c0.002,1.674-1.371,3.046-3.041,3.041c-1.668-0.004-3.045-1.389-3.039-3.053C31.325,24.919,32.695,23.565,34.379,23.565z"/>
<path fill="#FFFFFF" d="M37.361,17.216c-1.574-0.983-3.248-1.744-5.022-2.29c-1.016-0.312-2.045-0.577-3.095-0.725
	c-1.426-0.198-3.567-0.481-6.246-0.275c-1.1,0.073-2.186,0.221-3.268,0.43c-1.118,0.217-2.213,0.512-3.286,0.891
	c-1.487,0.527-2.903,1.201-4.232,2.055c-0.071,0.045-0.162,0.078-0.245,0.078c-1.892,0.004-3.784,0.004-5.675,0.002
	c-0.031,0-0.063-0.006-0.094-0.01c0,0.025,0,0.051,0,0.076c0.159,0.216,0.329,0.425,0.472,0.651
	c0.563,0.892,1.042,1.821,1.321,2.843c0.023,0.082,0.006,0.205-0.042,0.272c-0.683,0.975-1.18,2.034-1.466,3.186
	c-0.099,0.396-0.493,2.03-0.169,3.725c0.283,1.816,1.037,3.415,2.25,4.79c1.241,1.407,2.778,2.359,4.585,2.856
	c1.276,0.353,2.576,0.427,3.889,0.22c2.359-0.375,4.297-1.489,5.838-3.309c0.011-0.013,0.024-0.027,0.039-0.042
	c0.009-0.007,0.022-0.01,0.067-0.032c0.651,0.973,1.306,1.95,1.981,2.961c0.68-1.014,1.342-2.001,2.016-3.004
	c0.178,0.201,0.336,0.387,0.504,0.565c1.274,1.361,2.82,2.26,4.623,2.728c0.737,0.191,1.492,0.294,2.25,0.288
	c1.803-0.009,3.49-0.469,5.017-1.438c2.137-1.355,3.543-3.268,4.146-5.721c0.687-2.798,0.162-5.393-1.483-7.756
	c-0.081-0.118-0.073-0.219-0.039-0.337c0.317-1.111,0.854-2.118,1.479-3.079c0.086-0.132,0.174-0.265,0.26-0.396
	c0.007-0.009,0.002-0.024,0.002-0.06c-0.148-0.008-0.297-0.024-0.445-0.024c-1.848-0.002-3.697,0.001-5.545-0.007
	C37.617,17.327,37.471,17.284,37.361,17.216z M15.691,34.187c-4.209,0.036-7.511-3.359-7.577-7.366
	c-0.07-4.295,3.452-7.668,7.493-7.631c4.174,0,7.523,3.35,7.517,7.528C23.116,30.79,19.807,34.152,15.691,34.187z M21.961,19.704
	c-1.694-1.539-3.699-2.336-5.982-2.475c3.053-1.281,6.25-1.766,9.537-1.701c2.892,0.055,5.7,0.559,8.365,1.742
	c-2.244,0.171-4.224,0.971-5.885,2.493c-1.659,1.521-2.623,3.422-2.994,5.651C24.642,23.16,23.651,21.243,21.961,19.704z
	 M41.889,26.715c0.004,4.2-3.352,7.498-7.507,7.513c-4.139,0.017-7.51-3.378-7.51-7.53c0.037-4.089,3.247-7.396,7.349-7.48
	C38.375,19.133,41.887,22.387,41.889,26.715z"/>
<path fill="#339933" d="M34.357,29.644c1.67,0.005,3.043-1.367,3.041-3.041c0-1.676-1.355-3.037-3.02-3.037
	c-1.684,0-3.054,1.354-3.061,3.025C31.313,28.255,32.689,29.64,34.357,29.644z M34.369,25.063c0.854-0.003,1.55,0.695,1.543,1.545
	c-0.01,0.845-0.696,1.535-1.533,1.535c-0.861,0-1.556-0.682-1.554-1.525C32.826,25.741,33.499,25.063,34.369,25.063z"/>
<path fill="#339933" d="M15.607,19.189c-4.041-0.037-7.563,3.336-7.493,7.631c0.066,4.007,3.368,7.402,7.577,7.366
	c4.116-0.034,7.425-3.396,7.433-7.469C23.13,22.539,19.781,19.189,15.607,19.189z M15.728,31.254
	c-2.708,0.123-4.892-2.035-4.888-4.655c0.005-2.654,2.193-4.687,4.667-4.642c2.569-0.003,4.655,2.071,4.647,4.64
	C20.149,29.195,18.1,31.146,15.728,31.254z"/>
<path fill="#339933" d="M25,0C11.193,0,0,11.193,0,25s11.193,25,25,25c13.807,0,25-11.193,25-25S38.807,0,25,0z M43.736,17.358
	c0,0.035,0.005,0.051-0.002,0.06c-0.086,0.132-0.174,0.265-0.26,0.396c-0.625,0.961-1.162,1.968-1.479,3.079
	c-0.034,0.118-0.042,0.219,0.039,0.337c1.646,2.363,2.17,4.958,1.483,7.756c-0.603,2.453-2.009,4.365-4.146,5.721
	c-1.526,0.97-3.214,1.43-5.017,1.438c-0.758,0.006-1.513-0.097-2.25-0.288c-1.803-0.468-3.349-1.366-4.623-2.728
	c-0.168-0.179-0.326-0.364-0.504-0.565c-0.674,1.003-1.336,1.99-2.016,3.004c-0.675-1.011-1.33-1.988-1.981-2.961
	c-0.045,0.022-0.058,0.025-0.067,0.032c-0.015,0.015-0.028,0.029-0.039,0.042c-1.541,1.819-3.479,2.934-5.838,3.309
	c-1.313,0.207-2.613,0.133-3.889-0.22c-1.807-0.497-3.344-1.449-4.585-2.856c-1.213-1.375-1.967-2.974-2.25-4.79
	c-0.324-1.694,0.07-3.329,0.169-3.725c0.286-1.151,0.783-2.211,1.466-3.186c0.048-0.067,0.065-0.19,0.042-0.272
	C7.712,19.92,7.233,18.99,6.67,18.099c-0.143-0.227-0.313-0.436-0.472-0.651c0-0.025,0-0.051,0-0.076
	c0.031,0.004,0.063,0.01,0.094,0.01c1.891,0.002,3.783,0.002,5.675-0.002c0.083,0,0.174-0.033,0.245-0.078
	c1.329-0.854,2.745-1.527,4.232-2.055c1.073-0.379,2.168-0.674,3.286-0.891c1.082-0.209,2.168-0.356,3.268-0.43
	c2.679-0.206,4.82,0.077,6.246,0.275c1.05,0.147,2.079,0.413,3.095,0.725c1.774,0.546,3.448,1.307,5.022,2.29
	c0.109,0.068,0.256,0.111,0.385,0.111c1.848,0.008,3.697,0.005,5.545,0.007C43.439,17.334,43.588,17.351,43.736,17.358z"/>
<path fill="#339933" d="M15.466,23.565c-1.641,0.003-3.017,1.389-3.013,3.035c0.004,1.668,1.378,3.039,3.05,3.043
	c1.661,0.005,3.038-1.379,3.034-3.051C18.532,24.906,17.168,23.563,15.466,23.565z M15.504,28.159
	c-0.881,0.001-1.561-0.68-1.561-1.565c0-0.871,0.678-1.545,1.557-1.547c0.864,0,1.56,0.689,1.563,1.553
	C17.066,27.455,16.365,28.156,15.504,28.159z"/>
<path fill="#339933" d="M26.872,26.697c0,4.152,3.371,7.547,7.51,7.53c4.155-0.015,7.511-3.313,7.507-7.513
	c-0.002-4.328-3.514-7.582-7.668-7.498C30.119,19.301,26.909,22.608,26.872,26.697z M39.021,26.592c0,2.578-2.049,4.57-4.463,4.662
	c-2.695,0.104-4.854-2.046-4.853-4.651c0.001-2.636,2.175-4.689,4.661-4.646C36.938,21.952,39.021,24.023,39.021,26.592z"/>
<path fill="#339933" d="M27.996,19.764c1.661-1.522,3.641-2.322,5.885-2.493c-2.665-1.184-5.474-1.688-8.365-1.742
	c-3.287-0.064-6.483,0.42-9.537,1.701c2.283,0.139,4.288,0.936,5.982,2.475c1.69,1.539,2.681,3.456,3.041,5.711
	C25.373,23.186,26.337,21.285,27.996,19.764z"/>
</svg>
